<svg width="500" height="500" viewBox="0 0 500 500" fill="none" xmlns="http://www.w3.org/2000/svg">
<rect width="500" height="500" fill="#1E1E1E"/>
<rect width="500" height="500" fill="white"/>
<circle cx="250" cy="250" r="200" fill="#D9D9D9"/>
<path fill-rule="evenodd" clip-rule="evenodd" d="M200 400C310.457 400 400 310.457 400 200C400 157.542 386.77 118.174 364.207 85.7932C416.065 121.929 450 182.001 450 250C450 360.457 360.457 450 250 450C182.001 450 121.929 416.065 85.7932 364.207C118.174 386.77 157.542 400 200 400Z" fill="black"/>
<path d="M121.64 104.09L21 119.112H121.64L128.44 383L137.96 119.112L225 104.09H137.96L128.44 43L121.64 104.09Z" fill="#FFF000"/>
<path d="M173.478 74L72 89H173.478L180.289 360L189.824 89L277 74H189.824L180.289 13L173.478 74Z" fill="#FFF000"/>
</svg>
